<mxfile host="app.diagrams.net" agent="Mozilla/5.0 (Windows NT 10.0; Win64; x64) AppleWebKit/537.36 (KHTML, like Gecko) Chrome/133.0.0.0 Safari/537.36 Edg/133.0.0.0" version="26.0.16">
  <diagram name="Page-1" id="LDKgzouP7zjwD_X8Dtus">
    <mxGraphModel dx="2433" dy="1998" grid="1" gridSize="10" guides="1" tooltips="1" connect="1" arrows="1" fold="1" page="1" pageScale="1" pageWidth="850" pageHeight="1100" math="0" shadow="0">
      <root>
        <mxCell id="0" />
        <mxCell id="1" parent="0" />
        <mxCell id="oQfhdhh2bDpDLfZhzVHw-1" value="&lt;font style=&quot;font-size: 18px;&quot;&gt;&lt;b&gt;Student&lt;/b&gt;&lt;/font&gt;" style="rounded=0;whiteSpace=wrap;html=1;" vertex="1" parent="1">
          <mxGeometry x="90" y="50" width="120" height="60" as="geometry" />
        </mxCell>
        <mxCell id="oQfhdhh2bDpDLfZhzVHw-2" value="&lt;b&gt;&lt;font style=&quot;font-size: 18px;&quot;&gt;Course&lt;/font&gt;&lt;/b&gt;" style="rounded=0;whiteSpace=wrap;html=1;" vertex="1" parent="1">
          <mxGeometry x="520" y="50" width="120" height="60" as="geometry" />
        </mxCell>
        <mxCell id="oQfhdhh2bDpDLfZhzVHw-4" value="&lt;font style=&quot;font-size: 17px;&quot;&gt;name&lt;/font&gt;" style="ellipse;whiteSpace=wrap;html=1;" vertex="1" parent="1">
          <mxGeometry x="-90" y="-20" width="90" height="50" as="geometry" />
        </mxCell>
        <mxCell id="oQfhdhh2bDpDLfZhzVHw-7" value="&lt;font style=&quot;font-size: 17px;&quot;&gt;id&lt;/font&gt;" style="ellipse;whiteSpace=wrap;html=1;" vertex="1" parent="1">
          <mxGeometry x="20" y="-60" width="90" height="50" as="geometry" />
        </mxCell>
        <mxCell id="oQfhdhh2bDpDLfZhzVHw-8" style="edgeStyle=orthogonalEdgeStyle;rounded=0;orthogonalLoop=1;jettySize=auto;html=1;exitX=0.5;exitY=1;exitDx=0;exitDy=0;entryX=0.403;entryY=0;entryDx=0;entryDy=0;entryPerimeter=0;endArrow=none;startFill=0;strokeWidth=2;" edge="1" parent="1" source="oQfhdhh2bDpDLfZhzVHw-7" target="oQfhdhh2bDpDLfZhzVHw-1">
          <mxGeometry relative="1" as="geometry" />
        </mxCell>
        <mxCell id="oQfhdhh2bDpDLfZhzVHw-11" style="edgeStyle=orthogonalEdgeStyle;rounded=0;orthogonalLoop=1;jettySize=auto;html=1;exitX=0.5;exitY=1;exitDx=0;exitDy=0;entryX=0.113;entryY=0.06;entryDx=0;entryDy=0;entryPerimeter=0;endArrow=none;startFill=0;strokeWidth=2;" edge="1" parent="1" source="oQfhdhh2bDpDLfZhzVHw-4" target="oQfhdhh2bDpDLfZhzVHw-1">
          <mxGeometry relative="1" as="geometry" />
        </mxCell>
        <mxCell id="oQfhdhh2bDpDLfZhzVHw-13" style="edgeStyle=orthogonalEdgeStyle;rounded=0;orthogonalLoop=1;jettySize=auto;html=1;exitX=1;exitY=1;exitDx=0;exitDy=0;entryX=0;entryY=0.5;entryDx=0;entryDy=0;endArrow=none;startFill=0;strokeWidth=2;" edge="1" parent="1" source="oQfhdhh2bDpDLfZhzVHw-12" target="oQfhdhh2bDpDLfZhzVHw-1">
          <mxGeometry relative="1" as="geometry" />
        </mxCell>
        <mxCell id="oQfhdhh2bDpDLfZhzVHw-12" value="&lt;font style=&quot;font-size: 17px;&quot;&gt;Year&lt;/font&gt;" style="ellipse;whiteSpace=wrap;html=1;" vertex="1" parent="1">
          <mxGeometry x="-130" y="55" width="90" height="50" as="geometry" />
        </mxCell>
        <mxCell id="oQfhdhh2bDpDLfZhzVHw-71" style="edgeStyle=orthogonalEdgeStyle;rounded=0;orthogonalLoop=1;jettySize=auto;html=1;exitX=0;exitY=0.5;exitDx=0;exitDy=0;entryX=1;entryY=0.5;entryDx=0;entryDy=0;endArrow=none;startFill=0;strokeWidth=2;" edge="1" parent="1" source="oQfhdhh2bDpDLfZhzVHw-15" target="oQfhdhh2bDpDLfZhzVHw-2">
          <mxGeometry relative="1" as="geometry" />
        </mxCell>
        <mxCell id="oQfhdhh2bDpDLfZhzVHw-15" value="&lt;font style=&quot;font-size: 17px;&quot;&gt;id&lt;/font&gt;" style="ellipse;whiteSpace=wrap;html=1;" vertex="1" parent="1">
          <mxGeometry x="890" y="40" width="90" height="50" as="geometry" />
        </mxCell>
        <mxCell id="oQfhdhh2bDpDLfZhzVHw-72" style="edgeStyle=orthogonalEdgeStyle;rounded=0;orthogonalLoop=1;jettySize=auto;html=1;exitX=0;exitY=0.5;exitDx=0;exitDy=0;entryX=1;entryY=0.75;entryDx=0;entryDy=0;endArrow=none;startFill=0;strokeWidth=2;" edge="1" parent="1" source="oQfhdhh2bDpDLfZhzVHw-17" target="oQfhdhh2bDpDLfZhzVHw-2">
          <mxGeometry relative="1" as="geometry" />
        </mxCell>
        <mxCell id="oQfhdhh2bDpDLfZhzVHw-17" value="&lt;font style=&quot;font-size: 17px;&quot;&gt;Name&lt;/font&gt;" style="ellipse;whiteSpace=wrap;html=1;" vertex="1" parent="1">
          <mxGeometry x="880" y="90" width="90" height="50" as="geometry" />
        </mxCell>
        <mxCell id="oQfhdhh2bDpDLfZhzVHw-70" style="edgeStyle=orthogonalEdgeStyle;rounded=0;orthogonalLoop=1;jettySize=auto;html=1;exitX=0;exitY=0.5;exitDx=0;exitDy=0;entryX=1;entryY=0.25;entryDx=0;entryDy=0;endArrow=none;startFill=0;strokeWidth=2;" edge="1" parent="1" source="oQfhdhh2bDpDLfZhzVHw-19" target="oQfhdhh2bDpDLfZhzVHw-2">
          <mxGeometry relative="1" as="geometry" />
        </mxCell>
        <mxCell id="oQfhdhh2bDpDLfZhzVHw-19" value="&lt;font style=&quot;font-size: 16px;&quot;&gt;duration&lt;/font&gt;" style="ellipse;whiteSpace=wrap;html=1;" vertex="1" parent="1">
          <mxGeometry x="870" y="-30" width="90" height="50" as="geometry" />
        </mxCell>
        <mxCell id="oQfhdhh2bDpDLfZhzVHw-22" value="&lt;font style=&quot;font-size: 18px;&quot;&gt;&lt;b&gt;Department&lt;/b&gt;&lt;/font&gt;" style="rounded=0;whiteSpace=wrap;html=1;" vertex="1" parent="1">
          <mxGeometry x="305" y="-200" width="120" height="60" as="geometry" />
        </mxCell>
        <mxCell id="oQfhdhh2bDpDLfZhzVHw-23" value="&lt;font style=&quot;font-size: 17px;&quot;&gt;id&lt;/font&gt;" style="ellipse;whiteSpace=wrap;html=1;" vertex="1" parent="1">
          <mxGeometry x="335" y="-310" width="90" height="50" as="geometry" />
        </mxCell>
        <mxCell id="oQfhdhh2bDpDLfZhzVHw-24" value="&lt;font style=&quot;font-size: 17px;&quot;&gt;name&lt;/font&gt;" style="ellipse;whiteSpace=wrap;html=1;" vertex="1" parent="1">
          <mxGeometry x="225" y="-310" width="90" height="50" as="geometry" />
        </mxCell>
        <mxCell id="oQfhdhh2bDpDLfZhzVHw-25" style="edgeStyle=orthogonalEdgeStyle;rounded=0;orthogonalLoop=1;jettySize=auto;html=1;exitX=0.5;exitY=1;exitDx=0;exitDy=0;entryX=0.833;entryY=0;entryDx=0;entryDy=0;entryPerimeter=0;endArrow=none;startFill=0;strokeWidth=2;" edge="1" parent="1" source="oQfhdhh2bDpDLfZhzVHw-23" target="oQfhdhh2bDpDLfZhzVHw-22">
          <mxGeometry relative="1" as="geometry" />
        </mxCell>
        <mxCell id="oQfhdhh2bDpDLfZhzVHw-26" style="edgeStyle=orthogonalEdgeStyle;rounded=0;orthogonalLoop=1;jettySize=auto;html=1;exitX=0.5;exitY=1;exitDx=0;exitDy=0;entryX=0.2;entryY=-0.013;entryDx=0;entryDy=0;entryPerimeter=0;strokeWidth=2;endArrow=none;startFill=0;" edge="1" parent="1" source="oQfhdhh2bDpDLfZhzVHw-24" target="oQfhdhh2bDpDLfZhzVHw-22">
          <mxGeometry relative="1" as="geometry" />
        </mxCell>
        <mxCell id="oQfhdhh2bDpDLfZhzVHw-29" style="edgeStyle=orthogonalEdgeStyle;rounded=0;orthogonalLoop=1;jettySize=auto;html=1;exitX=0.5;exitY=0;exitDx=0;exitDy=0;entryX=0;entryY=0.5;entryDx=0;entryDy=0;endArrow=none;startFill=0;strokeWidth=2;" edge="1" parent="1" source="oQfhdhh2bDpDLfZhzVHw-27" target="oQfhdhh2bDpDLfZhzVHw-22">
          <mxGeometry relative="1" as="geometry" />
        </mxCell>
        <mxCell id="oQfhdhh2bDpDLfZhzVHw-94" value="1" style="edgeLabel;html=1;align=center;verticalAlign=middle;resizable=0;points=[];fontSize=18;fontStyle=1" vertex="1" connectable="0" parent="oQfhdhh2bDpDLfZhzVHw-29">
          <mxGeometry x="-0.2034" relative="1" as="geometry">
            <mxPoint y="-1" as="offset" />
          </mxGeometry>
        </mxCell>
        <mxCell id="oQfhdhh2bDpDLfZhzVHw-27" value="&lt;font style=&quot;font-size: 16px;&quot;&gt;in&lt;/font&gt;" style="rhombus;whiteSpace=wrap;html=1;" vertex="1" parent="1">
          <mxGeometry x="170" y="-100" width="70" height="80" as="geometry" />
        </mxCell>
        <mxCell id="oQfhdhh2bDpDLfZhzVHw-31" style="edgeStyle=orthogonalEdgeStyle;rounded=0;orthogonalLoop=1;jettySize=auto;html=1;exitX=0;exitY=0.5;exitDx=0;exitDy=0;entryX=1;entryY=0.5;entryDx=0;entryDy=0;shape=link;strokeWidth=2;" edge="1" parent="1" source="oQfhdhh2bDpDLfZhzVHw-30" target="oQfhdhh2bDpDLfZhzVHw-1">
          <mxGeometry relative="1" as="geometry" />
        </mxCell>
        <mxCell id="oQfhdhh2bDpDLfZhzVHw-37" value="M" style="edgeLabel;html=1;align=center;verticalAlign=middle;resizable=0;points=[];fontSize=19;fontStyle=1" vertex="1" connectable="0" parent="oQfhdhh2bDpDLfZhzVHw-31">
          <mxGeometry x="-0.1" y="-4" relative="1" as="geometry">
            <mxPoint as="offset" />
          </mxGeometry>
        </mxCell>
        <mxCell id="oQfhdhh2bDpDLfZhzVHw-32" style="edgeStyle=orthogonalEdgeStyle;rounded=0;orthogonalLoop=1;jettySize=auto;html=1;exitX=1;exitY=0.5;exitDx=0;exitDy=0;shape=link;strokeWidth=2;" edge="1" parent="1" source="oQfhdhh2bDpDLfZhzVHw-30" target="oQfhdhh2bDpDLfZhzVHw-2">
          <mxGeometry relative="1" as="geometry">
            <Array as="points">
              <mxPoint x="460" y="80" />
              <mxPoint x="460" y="80" />
            </Array>
          </mxGeometry>
        </mxCell>
        <mxCell id="oQfhdhh2bDpDLfZhzVHw-95" value="N" style="edgeLabel;html=1;align=center;verticalAlign=middle;resizable=0;points=[];fontSize=18;fontStyle=1" vertex="1" connectable="0" parent="oQfhdhh2bDpDLfZhzVHw-32">
          <mxGeometry x="0.1275" y="-2" relative="1" as="geometry">
            <mxPoint as="offset" />
          </mxGeometry>
        </mxCell>
        <mxCell id="oQfhdhh2bDpDLfZhzVHw-30" value="&lt;font style=&quot;font-size: 16px;&quot;&gt;Take&lt;/font&gt;" style="rhombus;whiteSpace=wrap;html=1;" vertex="1" parent="1">
          <mxGeometry x="310" y="40" width="80" height="80" as="geometry" />
        </mxCell>
        <mxCell id="oQfhdhh2bDpDLfZhzVHw-33" style="edgeStyle=orthogonalEdgeStyle;rounded=0;orthogonalLoop=1;jettySize=auto;html=1;exitX=0.5;exitY=1;exitDx=0;exitDy=0;entryX=0.917;entryY=-0.013;entryDx=0;entryDy=0;entryPerimeter=0;shape=link;strokeWidth=2;" edge="1" parent="1" source="oQfhdhh2bDpDLfZhzVHw-27" target="oQfhdhh2bDpDLfZhzVHw-1">
          <mxGeometry relative="1" as="geometry" />
        </mxCell>
        <mxCell id="oQfhdhh2bDpDLfZhzVHw-93" value="&lt;font style=&quot;font-size: 18px;&quot;&gt;M&lt;/font&gt;" style="edgeLabel;html=1;align=center;verticalAlign=middle;resizable=0;points=[];fontStyle=1" vertex="1" connectable="0" parent="oQfhdhh2bDpDLfZhzVHw-33">
          <mxGeometry x="0.2434" relative="1" as="geometry">
            <mxPoint as="offset" />
          </mxGeometry>
        </mxCell>
        <mxCell id="oQfhdhh2bDpDLfZhzVHw-91" style="edgeStyle=orthogonalEdgeStyle;rounded=0;orthogonalLoop=1;jettySize=auto;html=1;exitX=0;exitY=0.5;exitDx=0;exitDy=0;entryX=1;entryY=0.5;entryDx=0;entryDy=0;strokeWidth=2;endArrow=none;startFill=0;shape=link;" edge="1" parent="1" source="oQfhdhh2bDpDLfZhzVHw-43" target="oQfhdhh2bDpDLfZhzVHw-90">
          <mxGeometry relative="1" as="geometry" />
        </mxCell>
        <mxCell id="oQfhdhh2bDpDLfZhzVHw-98" value="M" style="edgeLabel;html=1;align=center;verticalAlign=middle;resizable=0;points=[];fontSize=17;fontStyle=1" vertex="1" connectable="0" parent="oQfhdhh2bDpDLfZhzVHw-91">
          <mxGeometry x="-0.427" y="2" relative="1" as="geometry">
            <mxPoint as="offset" />
          </mxGeometry>
        </mxCell>
        <mxCell id="oQfhdhh2bDpDLfZhzVHw-43" value="&lt;b&gt;&lt;font style=&quot;font-size: 18px;&quot;&gt;Exam&lt;/font&gt;&lt;/b&gt;" style="rounded=0;whiteSpace=wrap;html=1;" vertex="1" parent="1">
          <mxGeometry x="600" y="395" width="120" height="60" as="geometry" />
        </mxCell>
        <mxCell id="oQfhdhh2bDpDLfZhzVHw-46" style="edgeStyle=orthogonalEdgeStyle;rounded=0;orthogonalLoop=1;jettySize=auto;html=1;exitX=0;exitY=0.5;exitDx=0;exitDy=0;entryX=1;entryY=0.25;entryDx=0;entryDy=0;endArrow=none;startFill=0;strokeWidth=2;" edge="1" parent="1" source="oQfhdhh2bDpDLfZhzVHw-44" target="oQfhdhh2bDpDLfZhzVHw-43">
          <mxGeometry relative="1" as="geometry" />
        </mxCell>
        <mxCell id="oQfhdhh2bDpDLfZhzVHw-44" value="&lt;font style=&quot;font-size: 17px;&quot;&gt;id&lt;/font&gt;" style="ellipse;whiteSpace=wrap;html=1;" vertex="1" parent="1">
          <mxGeometry x="830" y="335" width="90" height="50" as="geometry" />
        </mxCell>
        <mxCell id="oQfhdhh2bDpDLfZhzVHw-47" style="edgeStyle=orthogonalEdgeStyle;rounded=0;orthogonalLoop=1;jettySize=auto;html=1;exitX=0;exitY=0.5;exitDx=0;exitDy=0;entryX=1;entryY=0.5;entryDx=0;entryDy=0;strokeWidth=2;endArrow=none;startFill=0;" edge="1" parent="1" source="oQfhdhh2bDpDLfZhzVHw-45" target="oQfhdhh2bDpDLfZhzVHw-43">
          <mxGeometry relative="1" as="geometry" />
        </mxCell>
        <mxCell id="oQfhdhh2bDpDLfZhzVHw-45" value="&lt;span style=&quot;font-size: 17px;&quot;&gt;name&lt;/span&gt;" style="ellipse;whiteSpace=wrap;html=1;" vertex="1" parent="1">
          <mxGeometry x="830" y="395" width="90" height="50" as="geometry" />
        </mxCell>
        <mxCell id="oQfhdhh2bDpDLfZhzVHw-48" value="&lt;font style=&quot;font-size: 17px;&quot;&gt;date&lt;/font&gt;" style="ellipse;whiteSpace=wrap;html=1;" vertex="1" parent="1">
          <mxGeometry x="830" y="455" width="90" height="50" as="geometry" />
        </mxCell>
        <mxCell id="oQfhdhh2bDpDLfZhzVHw-49" style="edgeStyle=orthogonalEdgeStyle;rounded=0;orthogonalLoop=1;jettySize=auto;html=1;exitX=0;exitY=0.5;exitDx=0;exitDy=0;entryX=1;entryY=0.75;entryDx=0;entryDy=0;strokeWidth=2;endArrow=none;startFill=0;" edge="1" parent="1" source="oQfhdhh2bDpDLfZhzVHw-48" target="oQfhdhh2bDpDLfZhzVHw-43">
          <mxGeometry relative="1" as="geometry">
            <Array as="points">
              <mxPoint x="760" y="480" />
              <mxPoint x="760" y="440" />
            </Array>
          </mxGeometry>
        </mxCell>
        <mxCell id="oQfhdhh2bDpDLfZhzVHw-51" style="edgeStyle=orthogonalEdgeStyle;rounded=0;orthogonalLoop=1;jettySize=auto;html=1;exitX=0;exitY=0.5;exitDx=0;exitDy=0;entryX=0.75;entryY=1;entryDx=0;entryDy=0;strokeWidth=2;endArrow=none;startFill=0;" edge="1" parent="1" source="oQfhdhh2bDpDLfZhzVHw-50" target="oQfhdhh2bDpDLfZhzVHw-43">
          <mxGeometry relative="1" as="geometry" />
        </mxCell>
        <mxCell id="oQfhdhh2bDpDLfZhzVHw-50" value="&lt;font style=&quot;font-size: 17px;&quot;&gt;duration&lt;/font&gt;" style="ellipse;whiteSpace=wrap;html=1;" vertex="1" parent="1">
          <mxGeometry x="840" y="525" width="90" height="50" as="geometry" />
        </mxCell>
        <mxCell id="oQfhdhh2bDpDLfZhzVHw-53" value="&lt;b&gt;&lt;font style=&quot;font-size: 18px;&quot;&gt;Question&lt;/font&gt;&lt;/b&gt;" style="rounded=0;whiteSpace=wrap;html=1;" vertex="1" parent="1">
          <mxGeometry x="10" y="415" width="120" height="60" as="geometry" />
        </mxCell>
        <mxCell id="oQfhdhh2bDpDLfZhzVHw-54" value="&lt;b&gt;&lt;font style=&quot;font-size: 18px;&quot;&gt;Choice&lt;/font&gt;&lt;/b&gt;" style="rounded=0;whiteSpace=wrap;html=1;" vertex="1" parent="1">
          <mxGeometry x="10" y="750" width="120" height="60" as="geometry" />
        </mxCell>
        <mxCell id="oQfhdhh2bDpDLfZhzVHw-59" style="edgeStyle=orthogonalEdgeStyle;rounded=0;orthogonalLoop=1;jettySize=auto;html=1;exitX=1;exitY=0.5;exitDx=0;exitDy=0;entryX=0;entryY=0.25;entryDx=0;entryDy=0;endArrow=none;startFill=0;strokeWidth=2;" edge="1" parent="1" source="oQfhdhh2bDpDLfZhzVHw-55" target="oQfhdhh2bDpDLfZhzVHw-53">
          <mxGeometry relative="1" as="geometry" />
        </mxCell>
        <mxCell id="oQfhdhh2bDpDLfZhzVHw-55" value="&lt;font style=&quot;font-size: 17px;&quot;&gt;id&lt;/font&gt;" style="ellipse;whiteSpace=wrap;html=1;" vertex="1" parent="1">
          <mxGeometry x="-160" y="330" width="90" height="50" as="geometry" />
        </mxCell>
        <mxCell id="oQfhdhh2bDpDLfZhzVHw-58" style="edgeStyle=orthogonalEdgeStyle;rounded=0;orthogonalLoop=1;jettySize=auto;html=1;exitX=1;exitY=0.5;exitDx=0;exitDy=0;entryX=0;entryY=0.5;entryDx=0;entryDy=0;endArrow=none;startFill=0;strokeWidth=2;" edge="1" parent="1" source="oQfhdhh2bDpDLfZhzVHw-57" target="oQfhdhh2bDpDLfZhzVHw-53">
          <mxGeometry relative="1" as="geometry" />
        </mxCell>
        <mxCell id="oQfhdhh2bDpDLfZhzVHw-57" value="&lt;font style=&quot;font-size: 17px;&quot;&gt;text&lt;/font&gt;" style="ellipse;whiteSpace=wrap;html=1;" vertex="1" parent="1">
          <mxGeometry x="-180" y="380" width="90" height="50" as="geometry" />
        </mxCell>
        <mxCell id="oQfhdhh2bDpDLfZhzVHw-65" style="edgeStyle=orthogonalEdgeStyle;rounded=0;orthogonalLoop=1;jettySize=auto;html=1;exitX=1;exitY=0.5;exitDx=0;exitDy=0;entryX=0;entryY=0.75;entryDx=0;entryDy=0;endArrow=none;startFill=0;strokeWidth=2;" edge="1" parent="1" source="oQfhdhh2bDpDLfZhzVHw-60" target="oQfhdhh2bDpDLfZhzVHw-53">
          <mxGeometry relative="1" as="geometry" />
        </mxCell>
        <mxCell id="oQfhdhh2bDpDLfZhzVHw-60" value="&lt;font style=&quot;font-size: 17px;&quot;&gt;Answer&lt;/font&gt;" style="ellipse;whiteSpace=wrap;html=1;" vertex="1" parent="1">
          <mxGeometry x="-220" y="440" width="90" height="50" as="geometry" />
        </mxCell>
        <mxCell id="oQfhdhh2bDpDLfZhzVHw-66" style="edgeStyle=orthogonalEdgeStyle;rounded=0;orthogonalLoop=1;jettySize=auto;html=1;exitX=1;exitY=0.5;exitDx=0;exitDy=0;entryX=0;entryY=0;entryDx=0;entryDy=0;endArrow=none;startFill=0;strokeWidth=2;" edge="1" parent="1" source="oQfhdhh2bDpDLfZhzVHw-61" target="oQfhdhh2bDpDLfZhzVHw-53">
          <mxGeometry relative="1" as="geometry" />
        </mxCell>
        <mxCell id="oQfhdhh2bDpDLfZhzVHw-61" value="&lt;font style=&quot;font-size: 17px;&quot;&gt;Type&lt;/font&gt;" style="ellipse;whiteSpace=wrap;html=1;" vertex="1" parent="1">
          <mxGeometry x="-230" y="290" width="90" height="50" as="geometry" />
        </mxCell>
        <mxCell id="oQfhdhh2bDpDLfZhzVHw-62" value="&lt;font style=&quot;font-size: 17px;&quot;&gt;Grade&lt;/font&gt;" style="ellipse;whiteSpace=wrap;html=1;" vertex="1" parent="1">
          <mxGeometry x="10" y="290" width="90" height="50" as="geometry" />
        </mxCell>
        <mxCell id="oQfhdhh2bDpDLfZhzVHw-67" style="edgeStyle=orthogonalEdgeStyle;rounded=0;orthogonalLoop=1;jettySize=auto;html=1;exitX=0.5;exitY=1;exitDx=0;exitDy=0;entryX=0.167;entryY=0.083;entryDx=0;entryDy=0;entryPerimeter=0;endArrow=none;startFill=0;strokeWidth=2;" edge="1" parent="1" source="oQfhdhh2bDpDLfZhzVHw-62" target="oQfhdhh2bDpDLfZhzVHw-53">
          <mxGeometry relative="1" as="geometry" />
        </mxCell>
        <mxCell id="oQfhdhh2bDpDLfZhzVHw-75" style="edgeStyle=orthogonalEdgeStyle;rounded=0;orthogonalLoop=1;jettySize=auto;html=1;exitX=0.5;exitY=1;exitDx=0;exitDy=0;entryX=0.5;entryY=0;entryDx=0;entryDy=0;endArrow=none;startFill=0;strokeWidth=2;shape=link;" edge="1" parent="1" source="oQfhdhh2bDpDLfZhzVHw-68" target="oQfhdhh2bDpDLfZhzVHw-2">
          <mxGeometry relative="1" as="geometry" />
        </mxCell>
        <mxCell id="oQfhdhh2bDpDLfZhzVHw-96" value="M" style="edgeLabel;html=1;align=center;verticalAlign=middle;resizable=0;points=[];fontSize=18;fontStyle=1" vertex="1" connectable="0" parent="oQfhdhh2bDpDLfZhzVHw-75">
          <mxGeometry x="0.0751" y="-2" relative="1" as="geometry">
            <mxPoint as="offset" />
          </mxGeometry>
        </mxCell>
        <mxCell id="oQfhdhh2bDpDLfZhzVHw-76" style="edgeStyle=orthogonalEdgeStyle;rounded=0;orthogonalLoop=1;jettySize=auto;html=1;exitX=0.5;exitY=0;exitDx=0;exitDy=0;entryX=1;entryY=0.5;entryDx=0;entryDy=0;endArrow=none;startFill=0;strokeWidth=2;shape=link;" edge="1" parent="1" source="oQfhdhh2bDpDLfZhzVHw-68" target="oQfhdhh2bDpDLfZhzVHw-22">
          <mxGeometry relative="1" as="geometry" />
        </mxCell>
        <mxCell id="oQfhdhh2bDpDLfZhzVHw-97" value="1" style="edgeLabel;html=1;align=center;verticalAlign=middle;resizable=0;points=[];fontStyle=1;fontSize=17;" vertex="1" connectable="0" parent="oQfhdhh2bDpDLfZhzVHw-76">
          <mxGeometry x="-0.1929" y="-3" relative="1" as="geometry">
            <mxPoint as="offset" />
          </mxGeometry>
        </mxCell>
        <mxCell id="oQfhdhh2bDpDLfZhzVHw-68" value="&lt;span style=&quot;font-size: 16px;&quot;&gt;Has&lt;/span&gt;" style="rhombus;whiteSpace=wrap;html=1;" vertex="1" parent="1">
          <mxGeometry x="490" y="-110" width="70" height="80" as="geometry" />
        </mxCell>
        <mxCell id="oQfhdhh2bDpDLfZhzVHw-79" style="edgeStyle=orthogonalEdgeStyle;rounded=0;orthogonalLoop=1;jettySize=auto;html=1;exitX=1;exitY=0.5;exitDx=0;exitDy=0;entryX=0;entryY=0.25;entryDx=0;entryDy=0;endArrow=none;startFill=0;strokeWidth=2;" edge="1" parent="1" source="oQfhdhh2bDpDLfZhzVHw-78" target="oQfhdhh2bDpDLfZhzVHw-54">
          <mxGeometry relative="1" as="geometry" />
        </mxCell>
        <mxCell id="oQfhdhh2bDpDLfZhzVHw-78" value="&lt;font style=&quot;font-size: 17px;&quot;&gt;id&lt;/font&gt;" style="ellipse;whiteSpace=wrap;html=1;" vertex="1" parent="1">
          <mxGeometry x="-170" y="680" width="90" height="50" as="geometry" />
        </mxCell>
        <mxCell id="oQfhdhh2bDpDLfZhzVHw-84" style="edgeStyle=orthogonalEdgeStyle;rounded=0;orthogonalLoop=1;jettySize=auto;html=1;exitX=1;exitY=0.5;exitDx=0;exitDy=0;entryX=0;entryY=0.75;entryDx=0;entryDy=0;endArrow=none;startFill=0;strokeWidth=2;" edge="1" parent="1" source="oQfhdhh2bDpDLfZhzVHw-81" target="oQfhdhh2bDpDLfZhzVHw-54">
          <mxGeometry relative="1" as="geometry" />
        </mxCell>
        <mxCell id="oQfhdhh2bDpDLfZhzVHw-81" value="&lt;font style=&quot;font-size: 17px;&quot;&gt;text&lt;/font&gt;" style="ellipse;whiteSpace=wrap;html=1;" vertex="1" parent="1">
          <mxGeometry x="-180" y="755" width="90" height="50" as="geometry" />
        </mxCell>
        <mxCell id="oQfhdhh2bDpDLfZhzVHw-86" style="edgeStyle=orthogonalEdgeStyle;rounded=0;orthogonalLoop=1;jettySize=auto;html=1;exitX=0.5;exitY=0;exitDx=0;exitDy=0;endArrow=none;startFill=0;strokeWidth=2;shape=link;" edge="1" parent="1" source="oQfhdhh2bDpDLfZhzVHw-85" target="oQfhdhh2bDpDLfZhzVHw-53">
          <mxGeometry relative="1" as="geometry" />
        </mxCell>
        <mxCell id="oQfhdhh2bDpDLfZhzVHw-113" value="1" style="edgeLabel;html=1;align=center;verticalAlign=middle;resizable=0;points=[];fontSize=18;fontStyle=1" vertex="1" connectable="0" parent="oQfhdhh2bDpDLfZhzVHw-86">
          <mxGeometry x="0.0316" y="-2" relative="1" as="geometry">
            <mxPoint y="-1" as="offset" />
          </mxGeometry>
        </mxCell>
        <mxCell id="oQfhdhh2bDpDLfZhzVHw-89" style="edgeStyle=orthogonalEdgeStyle;rounded=0;orthogonalLoop=1;jettySize=auto;html=1;exitX=0.5;exitY=1;exitDx=0;exitDy=0;entryX=0.5;entryY=0;entryDx=0;entryDy=0;strokeWidth=2;endArrow=none;startFill=0;shape=link;" edge="1" parent="1" source="oQfhdhh2bDpDLfZhzVHw-85" target="oQfhdhh2bDpDLfZhzVHw-54">
          <mxGeometry relative="1" as="geometry" />
        </mxCell>
        <mxCell id="oQfhdhh2bDpDLfZhzVHw-114" value="M" style="edgeLabel;html=1;align=center;verticalAlign=middle;resizable=0;points=[];fontSize=18;fontStyle=1" vertex="1" connectable="0" parent="oQfhdhh2bDpDLfZhzVHw-89">
          <mxGeometry x="0.2867" y="-2" relative="1" as="geometry">
            <mxPoint y="-1" as="offset" />
          </mxGeometry>
        </mxCell>
        <mxCell id="oQfhdhh2bDpDLfZhzVHw-85" value="&lt;span style=&quot;font-size: 16px;&quot;&gt;Has&lt;/span&gt;" style="rhombus;whiteSpace=wrap;html=1;" vertex="1" parent="1">
          <mxGeometry x="30" y="570" width="80" height="80" as="geometry" />
        </mxCell>
        <mxCell id="oQfhdhh2bDpDLfZhzVHw-92" style="edgeStyle=orthogonalEdgeStyle;rounded=0;orthogonalLoop=1;jettySize=auto;html=1;exitX=0;exitY=0.5;exitDx=0;exitDy=0;endArrow=none;startFill=0;strokeWidth=2;" edge="1" parent="1" source="oQfhdhh2bDpDLfZhzVHw-90" target="oQfhdhh2bDpDLfZhzVHw-53">
          <mxGeometry relative="1" as="geometry" />
        </mxCell>
        <mxCell id="oQfhdhh2bDpDLfZhzVHw-99" value="N" style="edgeLabel;html=1;align=center;verticalAlign=middle;resizable=0;points=[];fontStyle=1;fontSize=18;" vertex="1" connectable="0" parent="oQfhdhh2bDpDLfZhzVHw-92">
          <mxGeometry x="0.2448" y="6" relative="1" as="geometry">
            <mxPoint x="6" y="-6" as="offset" />
          </mxGeometry>
        </mxCell>
        <mxCell id="oQfhdhh2bDpDLfZhzVHw-90" value="&lt;font style=&quot;font-size: 16px;&quot;&gt;Constit of&lt;/font&gt;" style="rhombus;whiteSpace=wrap;html=1;" vertex="1" parent="1">
          <mxGeometry x="310" y="390" width="120" height="100" as="geometry" />
        </mxCell>
        <mxCell id="oQfhdhh2bDpDLfZhzVHw-101" style="edgeStyle=orthogonalEdgeStyle;rounded=0;orthogonalLoop=1;jettySize=auto;html=1;exitX=0.5;exitY=0;exitDx=0;exitDy=0;entryX=0.5;entryY=1;entryDx=0;entryDy=0;endArrow=none;startFill=0;strokeWidth=2;" edge="1" parent="1" source="oQfhdhh2bDpDLfZhzVHw-100" target="oQfhdhh2bDpDLfZhzVHw-2">
          <mxGeometry relative="1" as="geometry" />
        </mxCell>
        <mxCell id="oQfhdhh2bDpDLfZhzVHw-106" value="&lt;b&gt;&lt;font style=&quot;font-size: 18px;&quot;&gt;1&lt;/font&gt;&lt;/b&gt;" style="edgeLabel;html=1;align=center;verticalAlign=middle;resizable=0;points=[];" vertex="1" connectable="0" parent="oQfhdhh2bDpDLfZhzVHw-101">
          <mxGeometry x="-0.1844" y="3" relative="1" as="geometry">
            <mxPoint y="-1" as="offset" />
          </mxGeometry>
        </mxCell>
        <mxCell id="oQfhdhh2bDpDLfZhzVHw-102" style="edgeStyle=orthogonalEdgeStyle;rounded=0;orthogonalLoop=1;jettySize=auto;html=1;exitX=0.5;exitY=1;exitDx=0;exitDy=0;entryX=0.25;entryY=0;entryDx=0;entryDy=0;endArrow=none;startFill=0;strokeWidth=2;shape=link;" edge="1" parent="1" source="oQfhdhh2bDpDLfZhzVHw-100" target="oQfhdhh2bDpDLfZhzVHw-43">
          <mxGeometry relative="1" as="geometry" />
        </mxCell>
        <mxCell id="oQfhdhh2bDpDLfZhzVHw-105" value="M" style="edgeLabel;html=1;align=center;verticalAlign=middle;resizable=0;points=[];fontSize=18;fontStyle=1" vertex="1" connectable="0" parent="oQfhdhh2bDpDLfZhzVHw-102">
          <mxGeometry x="0.47" relative="1" as="geometry">
            <mxPoint y="-1" as="offset" />
          </mxGeometry>
        </mxCell>
        <mxCell id="oQfhdhh2bDpDLfZhzVHw-100" value="&lt;font style=&quot;font-size: 16px;&quot;&gt;Has&lt;/font&gt;" style="rhombus;whiteSpace=wrap;html=1;" vertex="1" parent="1">
          <mxGeometry x="550" y="210" width="80" height="80" as="geometry" />
        </mxCell>
        <mxCell id="oQfhdhh2bDpDLfZhzVHw-108" style="edgeStyle=orthogonalEdgeStyle;rounded=0;orthogonalLoop=1;jettySize=auto;html=1;exitX=1;exitY=0.5;exitDx=0;exitDy=0;entryX=0;entryY=0.25;entryDx=0;entryDy=0;endArrow=none;startFill=0;strokeWidth=2;shape=link;" edge="1" parent="1" source="oQfhdhh2bDpDLfZhzVHw-107" target="oQfhdhh2bDpDLfZhzVHw-43">
          <mxGeometry relative="1" as="geometry" />
        </mxCell>
        <mxCell id="oQfhdhh2bDpDLfZhzVHw-110" value="M" style="edgeLabel;html=1;align=center;verticalAlign=middle;resizable=0;points=[];fontSize=18;fontStyle=1" vertex="1" connectable="0" parent="oQfhdhh2bDpDLfZhzVHw-108">
          <mxGeometry x="0.1768" y="1" relative="1" as="geometry">
            <mxPoint y="1" as="offset" />
          </mxGeometry>
        </mxCell>
        <mxCell id="oQfhdhh2bDpDLfZhzVHw-109" style="edgeStyle=orthogonalEdgeStyle;rounded=0;orthogonalLoop=1;jettySize=auto;html=1;exitX=0;exitY=0.5;exitDx=0;exitDy=0;endArrow=none;startFill=0;strokeWidth=2;" edge="1" parent="1" source="oQfhdhh2bDpDLfZhzVHw-107" target="oQfhdhh2bDpDLfZhzVHw-1">
          <mxGeometry relative="1" as="geometry" />
        </mxCell>
        <mxCell id="oQfhdhh2bDpDLfZhzVHw-112" value="N" style="edgeLabel;html=1;align=center;verticalAlign=middle;resizable=0;points=[];fontSize=18;fontStyle=1" vertex="1" connectable="0" parent="oQfhdhh2bDpDLfZhzVHw-109">
          <mxGeometry x="0.4629" y="-3" relative="1" as="geometry">
            <mxPoint y="1" as="offset" />
          </mxGeometry>
        </mxCell>
        <mxCell id="oQfhdhh2bDpDLfZhzVHw-107" value="&lt;font style=&quot;font-size: 16px;&quot;&gt;Take&lt;/font&gt;" style="rhombus;whiteSpace=wrap;html=1;" vertex="1" parent="1">
          <mxGeometry x="320" y="200" width="80" height="80" as="geometry" />
        </mxCell>
      </root>
    </mxGraphModel>
  </diagram>
</mxfile>
